<svg xmlns="http://www.w3.org/2000/svg" viewBox="0 0 100 84.147"><g transform="translate(-636.387 -424.452)"><path d="M678.825,440.063q-10.976,5.611-16.462,12.8t-5.489,18.17a8.653,8.653,0,0,1,2.439-.243,19.608,19.608,0,0,1,13.294,4.756q5.487,4.756,5.487,13.048,0,9.274-5.366,14.634a18.2,18.2,0,0,1-13.415,5.367q-11.467,0-17.194-8.414t-5.732-23.537q0-17.317,8.536-30.488t26.1-21.708Zm57.562,0q-10.976,5.611-16.464,12.8t-5.488,18.17a8.64,8.64,0,0,1,2.439-.243,19.608,19.608,0,0,1,13.293,4.756q5.487,4.756,5.487,13.048,0,9.274-5.364,14.634a18.2,18.2,0,0,1-13.415,5.367q-11.469,0-17.2-8.414t-5.732-23.537q0-17.317,8.536-30.488t26.1-21.708Z" transform="translate(0 0)" fill="#f6a75d"/></g></svg>